<svg data-v-0dd9719b="" version="1.0" xmlns="http://www.w3.org/2000/svg" xmlns:xlink="http://www.w3.org/1999/xlink" width="100%" height="100%" viewBox="0 0 340.000000 250.000000" preserveAspectRatio="xMidYMid meet" color-interpolation-filters="sRGB" style="margin: auto;"> <rect data-v-0dd9719b="" x="0" y="0" width="100%" height="100%" fill="#fff" fill-opacity="1" class="background"></rect> <rect data-v-0dd9719b="" x="0" y="0" width="100%" height="100%" fill="url(#watermark)" fill-opacity="1" class="watermarklayer"></rect> <g data-v-0dd9719b="" fill="#333" class="icon-text-wrapper icon-svg-group iconsvg" transform="translate(49.48999786376953,95.00569915771484)"><g class="iconsvg-imagesvg" transform="translate(0,0)"><g><rect fill="#333" fill-opacity="0" stroke-width="2" x="0" y="0" width="60" height="59.988602165588546" class="image-rect"></rect> <svg x="0" y="0" width="60" height="59.988602165588546" filtersec="colorsb2145628446" class="image-svg-svg primary" style="overflow: visible;"><svg xmlns="http://www.w3.org/2000/svg" viewBox="-0.003401517868041992 -0.0017547607421875 100.01905059814453 100.00041198730469"><g fill-rule="evenodd"><path d="M96.61 31.73A55.53 55.53 0 0 0 93 24.27l-.06-.11a25.76 25.76 0 0 1-3.23 7.22 42.76 42.76 0 0 1 2.53 6.83 43.77 43.77 0 0 1-31.17 54.12 12.51 12.51 0 0 0 13.81 1.07 50.2 50.2 0 0 0 21.73-61.67zM39.12 92.37a31.38 31.38 0 0 0 3.38 7.06 49.53 49.53 0 0 0 8.41.56C31.52 80.22 54.5 47.77 79.67 60a31.47 31.47 0 0 1-2.59 5.7c-14.65-7.29-30.62 6.49-26.38 21.79A37.58 37.58 0 0 0 86.9 57C62 39.35 29.78 64.29 39.12 92.37zm14.54 1.22A18.62 18.62 0 0 0 59.91 99a50.48 50.48 0 0 0 15-5.61 12.51 12.51 0 0 1-13.81-1.07 44.31 44.31 0 0 1-7.44 1.27zm21.22-.19zm-1.55-22.56a31.21 31.21 0 0 1-16.92 9.74 12.54 12.54 0 0 1 16.92-9.74z" fill="#ffb400"></path><path d="M92.19 38.21a31.72 31.72 0 0 0 4.42-6.48 51.07 51.07 0 0 0-3.72-7.57c-7.26 26.15-46.91 23.61-49-4.82a31.62 31.62 0 0 1 6.22-.62 18.78 18.78 0 0 0 27 15.58 31.3 31.3 0 0 0-20.69-14.93 12.51 12.51 0 0 0 16.92 9.76 30.8 30.8 0 0 1 3.75 5.17 18.81 18.81 0 0 0 10.44-17.45C67.51-5.8 30.72-6.07 10.94 18.79a31.67 31.67 0 0 1 7.82.58 43.82 43.82 0 0 1 62.41-.17 12.63 12.63 0 0 1-2.74 6.24 37.54 37.54 0 0 0-40.78-10.86c-2.82 30.35 34.89 45.87 54.54 23.63z" fill="#2859e2"></path><path d="M10.43 31.37a18.81 18.81 0 0 0-7.82 2.72c-9.93 29.53 9.53 60.72 39.89 65.34a31.38 31.38 0 0 1-3.38-7.06 43.9 43.9 0 0 1-28.69-61zm16.18 39.31A31.69 31.69 0 0 1 23 65.6c13.28-8.87 10-29.68-5.75-33.76a37.56 37.56 0 0 0 8.36 46.58c27.17-12.45 22.82-53-6.82-59a30.69 30.69 0 0 0-7.81-.58A51.66 51.66 0 0 0 6.73 25l-.47.83C33 18.89 49.62 55 26.61 70.68zm-6.25-10.92a31.16 31.16 0 0 1 0-19.52 12.52 12.52 0 0 1 0 19.52z" fill="#fa0e62"></path></g></svg></svg> <!----></g></g> <g transform="translate(67,0.5780487060546875)"><g data-gra="path-name" fill-rule="" class="tp-name iconsvg-namesvg" transform="translate(0,0)"><g transform="scale(1)"><g><path d="M25.96-22.95L25.88-20.61Q30.82-21.29 34.16-22 37.48-22.72 39.35-22.72 41.22-22.72 42.55-21.33 43.88-19.93 43.88-19.3L43.88-19.3Q43.88-18.4 41.76-18.4L41.76-18.4Q40.86-18.4 39.49-18.59 38.12-18.77 35.73-18.77L35.73-18.77Q30.11-18.77 22.75-17.95 15.39-17.14 11.16-15.93L11.16-15.93Q9.76-15.52 9-15.52 8.23-15.52 6.66-16.29 5.08-17.05 5.08-17.62 5.08-18.18 6.97-18.31L6.97-18.31Q11.56-18.63 22-20.07L22-20.07 22.05-22.32Q19.53-21.73 18.38-21.73 17.23-21.73 16.09-22.18 14.94-22.63 14.94-23.04L14.94-23.04Q14.94-23.63 17.17-23.87 19.39-24.12 22.05-24.75L22.05-24.75 22.09-26.86Q19.44-26.28 18.11-26.28 16.79-26.28 15.5-26.68 14.22-27.09 14.22-27.54 14.22-27.99 16.63-28.28 19.04-28.57 22.09-29.25L22.09-29.25Q22.05-32.89 21.2-33.84L21.2-33.84Q20.02-35.28 20.02-35.93 20.02-36.59 21.15-36.59 22.27-36.59 24.75-35.84 27.22-35.1 27.22-33.93L27.22-33.93Q27.22-33.44 26.82-32.71 26.41-31.99 26.28-30.46L26.28-30.46Q29.47-31.59 30.46-31.59 31.45-31.59 32.58-31.25 33.7-30.91 33.7-30.29 33.7-29.65 32.63-29.09 31.54-28.53 26.1-27.58L26.1-27.58 26.01-25.92Q28.48-26.68 29.5-26.68 30.51-26.68 31.52-26.17 32.53-25.65 32.53-25.13 32.53-24.61 31.72-24.16 30.91-23.71 25.96-22.95L25.96-22.95ZM18.9-15.3L18.9-15.3Q26.01-16.06 27.81-17.05L27.81-17.05Q28.84-17.64 29.56-17.64 30.29-17.64 32.4-16.54 34.52-15.43 34.52-14.63L34.52-14.63Q34.52-14.31 34.2-13.63L34.2-13.63Q33.57-12.33 33.57-11.38 33.57-10.44 33.7-9 33.84-7.56 34.02-4.37 34.2-1.17 34.2 0.09 34.2 1.35 33.66 2.56 33.12 3.78 32.04 4.72 30.96 5.67 30.02 5.67 29.07 5.67 28.66 4.5L28.66 4.5Q27.81 2.21 26.05 0.77 24.3-0.67 24.3-1.1 24.3-1.53 24.86-1.53 25.43-1.53 26.5-1.28 27.58-1.03 28.15-1.03 28.71-1.03 29-1.21 29.29-1.4 29.38-2.92 29.47-4.46 29.47-6.21 29.47-7.96 29.27-10.57 29.07-13.18 28.93-13.66 28.8-14.13 28.53-14.31 28.26-14.49 27.72-14.49 27.18-14.49 24.7-13.99 22.23-13.5 19.93-13.37L19.93-13.37 19.84-10.66Q23.71-11.7 24.79-11.7 25.88-11.7 26.62-11.34 27.36-10.98 27.36-10.44L27.36-10.44Q27.36-9.58 25.15-9.2 22.95-8.82 21.8-8.82 20.65-8.82 19.75-8.91L19.75-8.91Q19.66-7.11 19.57-6.21L19.57-6.21Q23.94-7.25 25.11-7.25 26.28-7.25 27.11-6.88 27.95-6.52 27.95-6.08 27.95-5.63 27.58-5.26 27.22-4.91 25.13-4.59 23.04-4.27 21.82-4.27 20.61-4.27 19.39-4.5L19.39-4.5Q18.31 4.27 16.06 4.27L16.06 4.27Q15.16 4.27 14.2 2.81 13.23 1.35 13.23 0.4 13.23-0.54 14.15-1.51 15.07-2.48 15.62-5.22 16.16-7.96 16.16-10.62L16.16-10.62Q16.16-12.73 15.68-13.68 15.21-14.63 15.21-15.23 15.21-15.84 16.11-15.84 17.01-15.84 18.9-15.3ZM61.65-14.63L61.65-14.63Q75.02-15.88 77.76-17.28L77.76-17.28Q79.02-17.91 79.88-17.91 80.73-17.91 83.12-16.36 85.5-14.8 85.5-13.99L85.5-13.99Q85.5-13.54 84.87-12.91L84.87-12.91Q83.61-11.61 83.3-7.56L83.3-7.56Q82.57 1.21 80.21 3.92 77.85 6.61 76.14 6.61L76.14 6.61Q74.97 6.61 74.88 5.58L74.88 5.58Q74.75 3.87 72.5 1.84L72.5 1.84Q71.73 1.13 71.73 0.72 71.73 0.32 72.34 0.32 72.94 0.32 73.89 0.54 74.83 0.77 75.56 0.77 76.28 0.77 76.66 0.45 77.04 0.14 77.6-1.19 78.16-2.52 78.55-4.91 78.93-7.29 78.93-10.24 78.93-13.18 78.77-13.54 78.62-13.9 77.67-13.9L77.67-13.9Q72.94-13.9 64.75-12.6L64.75-12.6Q66.38-11.79 66.38-10.93L66.38-10.93Q66.38-10.57 65.99-9.97 65.61-9.36 65.34-5.94L65.34-5.94Q68-6.39 70.47-6.71L70.47-6.71Q70.56-8.64 70.04-9.47 69.53-10.3 69.53-10.98 69.53-11.65 70.47-11.65 71.41-11.65 73.33-10.91 75.24-10.17 75.24-9.18L75.24-9.18Q75.24-8.73 74.83-7.96L74.83-7.96Q74.34-7.11 74.09-4.97 73.84-2.83 73.22-1.93 72.58-1.03 71.86-1.03 71.14-1.03 70.74-1.89 70.33-2.75 70.38-4.5L70.38-4.5Q59.27-2.7 55.94-0.81L55.94-0.81Q54.59-0.04 53.93-0.04 53.28-0.04 52.56-1.78 51.84-3.51 51.84-3.87 51.84-4.23 52.04-4.43 52.24-4.63 53.01-4.79 53.77-4.95 54.16-5.63 54.54-6.3 54.54-7.22 54.54-8.14 54.07-9 53.59-9.86 53.59-10.46 53.59-11.07 54.36-11.07 55.13-11.07 56.77-10.28 58.41-9.49 58.41-8.3 58.41-7.11 57.28-5L57.28-5 62.01-5.44Q61.97-10.39 61.38-11.97L61.38-11.97Q60.08-11.61 59.76-11.34L59.76-11.34Q58.77-10.66 58.16-10.66 57.55-10.66 56.79-12.13 56.02-13.59 56.02-14.08 56.02-14.58 56.81-14.78 57.6-14.98 57.89-15.93 58.19-16.88 58.19-19.84L58.19-19.84Q58.19-26.05 57.02-27.45L57.02-27.45Q56.43-28.17 56.43-28.6 56.43-29.02 57.33-29.02 58.23-29.02 60.3-28.3L60.3-28.3Q60.7-28.3 62.5-28.39L62.5-28.39Q65.7-32.49 65.7-34.47L65.7-34.47Q65.7-34.83 65.59-35.19 65.47-35.55 65.47-35.91L65.47-35.91Q65.47-36.85 66.51-36.85 67.55-36.85 69.7-35.77 71.86-34.7 71.86-33.84L71.86-33.84Q71.86-33.21 70.4-32.56 68.94-31.9 65.43-28.75L65.43-28.75Q69.93-29.38 70.9-30.02 71.86-30.64 72.67-30.64 73.48-30.64 75.58-29.52 77.67-28.39 77.67-27.79 77.67-27.18 76.95-26.41L76.95-26.41Q76.05-25.47 75.83-23.45L75.83-23.45Q75.15-18.9 73.78-17.55 72.41-16.2 71.39-16.2 70.38-16.2 70.29-17.14L70.29-17.14Q70.25-17.64 69.97-18.04 69.7-18.45 68.78-19.44 67.86-20.43 67.86-20.75 67.86-21.06 68.38-21.06 68.89-21.06 69.66-20.93 70.42-20.79 70.76-20.79 71.1-20.79 71.23-21.04 71.37-21.29 71.66-22.72 71.95-24.16 71.95-25.65 71.95-27.13 70.94-27.13 69.93-27.13 61.7-26.05L61.7-26.05Q62.1-23.4 62.1-20.7 62.1-18 61.65-14.63ZM63.9-25.11L63.9-25.11Q66.78-25.11 67.45-24.16 68.13-23.22 68.13-22.5 68.13-21.78 67.7-21.31 67.28-20.84 66.69-20.84L66.69-20.84Q65.61-20.84 64.33-22.41 63.05-23.98 63.05-24.7L63.05-24.7Q63.05-25.11 63.9-25.11ZM124.25-8.32L124.25-8.32Q126.85-6.52 128.99-5.31 131.13-4.09 133.97-3.15L133.97-3.15Q136.26-2.38 136.26-1.8 136.26-1.21 132.64-0.58 129.01 0.04 127.8 0.04L127.8 0.04Q125.91 0.04 124.99-0.74 124.06-1.53 121.77-4.72L121.77-4.72Q119.7-2.65 115.9-1.57 112.09-0.49 110.56-0.49L110.56-0.49Q109.89-0.49 109.89-0.77L109.89-0.77Q109.89-1.26 112.81-2.7L112.81-2.7Q117.54-5.08 119.47-7.83L119.47-7.83Q116.91-11.38 115.29-13L115.29-13Q113.31-7.74 109.73-5.17 106.16-2.61 105.12-2.38L105.12-2.38Q105.03-0.04 104.36 1.67 103.68 3.38 102.78 3.38 101.88 3.38 100.78 1.69 99.67 0 99.67-1.26 99.67-2.52 100.62-4.41L100.62-4.41Q100.94-5.08 101.11-6.43 101.3-7.79 101.56-11.52L101.56-11.52Q99.41-7.96 96.44-6.43 93.47-4.91 92.7-4.91L92.7-4.91Q92.47-4.91 92.47-5.08L92.47-5.08Q92.47-5.54 94.32-7.47L94.32-7.47Q98.14-11.52 101.83-20.07L101.83-20.07Q99.58-19.66 98.01-19.66 96.44-19.66 95.17-20.14 93.92-20.61 93.92-20.93 93.92-21.24 95.67-21.55L95.67-21.55Q99.45-22.18 102.28-23.22L102.28-23.22Q102.33-24.7 102.33-26.01L102.33-26.01Q102.33-31.81 101.14-33.12 99.94-34.42 99.94-35.1 99.94-35.77 101.07-35.77 102.19-35.77 104.78-34.85 107.37-33.93 107.37-32.67L107.37-32.67Q107.37-32.13 106.92-31.34 106.47-30.55 106.27-29.25 106.06-27.95 105.84-24.48L105.84-24.48Q106.83-24.75 107.71-24.75 108.59-24.75 109.62-24.34 110.66-23.94 110.66-23.4 110.66-22.86 109.69-22.27 108.72-21.69 105.57-20.88L105.57-20.88 105.39-17.59Q109.84-17.77 109.84-14.49L109.84-14.49Q109.84-13.59 109.39-13 108.94-12.42 108.31-12.42L108.31-12.42Q107.5-12.42 105.25-14.8L105.25-14.8Q105.12-11.07 105.12-5.89L105.12-5.89 105.12-3.55Q105.39-3.92 106.38-5L106.38-5Q110.25-9.04 112.09-14.94 113.94-20.84 113.94-23.49L113.94-23.49Q113.94-24.07 113.85-24.61L113.85-24.61Q113.27-24.43 112.72-24.43 112.19-24.43 110.95-25.47 109.71-26.5 109.71-26.89 109.71-27.27 111.71-27.36 113.72-27.45 117.25-28.48 120.78-29.52 121.79-30.38 122.81-31.23 123.64-31.23 124.47-31.23 126.79-29.97 129.1-28.71 129.1-28.13 129.1-27.54 127.82-26.8 126.54-26.05 125.28-24.21 124.02-22.36 122.17-19.21L122.17-19.21Q123.62-19.8 124.54-19.8 125.46-19.8 127.26-18.56 129.06-17.32 129.06-16.79 129.06-16.25 127.87-15.48 126.67-14.71 126.18-13.14L126.18-13.14Q125.23-10.3 124.25-8.32ZM120.96-10.8L120.96-10.8Q121.55-12.29 122.06-14.26 122.58-16.25 122.58-16.7 122.58-17.14 122.06-17.14 121.55-17.14 120.8-17.01 120.06-16.88 119.83-16.88L119.83-16.88Q118.84-16.88 118.84-17.73 118.84-18.59 119.59-19.62 120.33-20.65 121.25-23.31 122.17-25.96 122.17-26.46L122.17-26.46Q122.17-27.13 121.5-27.13 120.83-27.13 119.41-26.73 117.99-26.32 116.59-25.7L116.59-25.7Q119.3-24.43 119.3-23.4L119.3-23.4Q119.3-22.95 118.64-22.16 117.99-21.38 117.52-19.75 117.05-18.13 116.19-15.57L116.19-15.57Q116.78-15.12 117.88-13.77 118.98-12.42 120.96-10.8ZM150.3-21.38L150.3-21.38Q151.92-22.86 152.12-24.21 152.32-25.56 153.02-25.56 153.72-25.56 155.25-24.37 156.78-23.18 156.78-22.43 156.78-21.69 154.96-21.02 153.13-20.34 150.25-18.9L150.25-18.9Q149.99-13.32 149.31-9.58L149.31-9.58Q152.06-8.55 152.82-7.88 153.59-7.2 153.59-5.76L153.59-5.76Q153.59-2.88 152.28-2.88L152.28-2.88Q151.69-2.88 151.02-3.55 150.34-4.23 148.68-7.06L148.68-7.06Q147.33-2.34 143.73 0.77 140.13 3.87 139.19 3.87L139.19 3.87Q138.96 3.87 138.96 3.65L138.96 3.65Q138.96 3.06 140.4 1.35L140.4 1.35Q144.54-3.46 145.53-9.83 146.52-16.2 146.52-22.27L146.52-22.27Q146.52-29.29 145.53-30.69L145.53-30.69Q144.18-32.58 144.18-33.16 144.18-33.75 145.1-33.75 146.03-33.75 148.23-33.19 150.44-32.63 151.11-32.24 151.78-31.86 151.78-31.27 151.78-30.69 151.34-29.56L151.34-29.56Q150.44-27.36 150.3-21.38ZM168.21-18.5L168.21-18.5Q170.78-19.04 172.13-19.37 173.47-19.71 174.44-19.71 175.41-19.71 177.07-18.47 178.74-17.23 178.74-16.47L178.74-16.47Q178.74-15.48 176.4-15.48L176.4-15.48Q175.55-15.48 174.53-15.62 173.52-15.75 171.99-15.75 170.46-15.75 168.25-15.52L168.25-15.52Q168.3-11.74 168.5-7.69 168.7-3.65 168.7-3.1L168.7-3.1Q168.7 0.14 167.49 1.93 166.28 3.73 165.24 3.73 164.2 3.73 163.57 2.43L163.57 2.43Q162.63 0.54 160.69-0.99L160.69-0.99Q159.62-1.84 159.62-2.25 159.62-2.65 160.22-2.65 160.83-2.65 161.8-2.45 162.76-2.25 163.37-2.25 163.98-2.25 164.23-2.65 164.47-3.06 164.61-4.18 164.75-5.31 164.75-7.06 164.75-8.82 164.56-14.98L164.56-14.98Q160.69-14.26 158.49-12.6L158.49-12.6Q157.68-11.97 156.98-11.97 156.28-11.97 155.16-13.39 154.03-14.8 154.03-15.43 154.03-16.06 155.88-16.56L155.88-16.56Q156.51-16.74 156.91-18.36 157.32-19.98 157.32-22.25 157.32-24.52 156.74-25.15L156.74-25.15Q155.75-26.19 155.75-26.82L155.75-26.82Q155.75-27.58 157.21-27.58 158.67-27.58 159.84-27.27L159.84-27.27Q163.75-28.71 165.98-29.88 168.21-31.05 168.39-31.77L168.39-31.77Q168.75-33.07 169.72-33.07 170.69-33.07 172.75-31.34 174.82-29.61 174.82-28.8 174.82-27.99 172.89-27.95L172.89-27.95Q171.05-27.9 168.05-26.98 165.06-26.05 161.1-25.38L161.1-25.38Q160.56-21.51 160.29-16.74L160.29-16.74Q162.45-17.32 164.47-17.73L164.47-17.73Q164.29-22.14 163.55-23.02 162.81-23.89 162.81-24.34L162.81-24.34Q162.81-24.97 163.89-24.97 164.97-24.97 166.95-24.43 168.93-23.89 168.93-22.77L168.93-22.77Q168.93-22.36 168.59-21.51 168.25-20.65 168.21-18.5ZM145.35-16.74L145.35-16.74Q145.35-15.79 144.7-14.54 144.04-13.28 143.39-13.28 142.74-13.28 142.22-14.04 141.71-14.8 141.01-17.53 140.31-20.25 140.31-20.93 140.31-21.6 140.9-21.6 141.48-21.6 143.41-20 145.35-18.4 145.35-16.74ZM159.3-11.34L159.3-11.34Q159.75-11.34 160.09-10.62 160.43-9.9 160.43-8.19L160.43-8.19Q160.43-5.08 159.1-3.17 157.77-1.26 156.47-1.26L156.47-1.26Q154.84-1.26 154.84-3.96L154.84-3.96Q154.84-4.59 155.05-5.06 155.25-5.54 155.93-6.21L155.93-6.21Q157.54-7.74 158.09-9.54 158.63-11.34 159.3-11.34ZM179.1-4.59L179.1-4.59Q179.1-2.83 178.6-1.96 178.11-1.08 177.21-1.08 176.31-1.08 175.12-2.99 173.93-4.91 170.69-8.5L170.69-8.5Q169.74-9.58 169.74-10.01 169.74-10.44 170.28-10.44L170.28-10.44Q171.36-10.44 174.44-9.25 177.53-8.05 178.31-7.13 179.1-6.21 179.1-4.59Z" transform="translate(-5.079999923706055, 36.849998474121094)"></path></g> <!----> <!----> <!----> <!----> <!----> <!----> <!----></g></g> <g data-gra="path-slogan" fill-rule="" class="tp-slogan iconsvg-slogansvg" fill="#333" transform="translate(35.61000442504883,49.459999084472656)"><!----> <!----> <g transform="scale(1, 1)"><g transform="scale(1)"><path d="M5.91-1.08L5.02-1.78L5.63-2.48L6.70-1.64Q7.69-2.63 7.69-4.27L7.69-4.27Q7.50-7.64 4.69-7.83L4.69-7.83Q1.83-7.69 1.69-4.27L1.69-4.27Q1.83-0.94 4.69-0.80L4.69-0.80Q5.39-0.80 5.91-1.08L5.91-1.08ZM7.64-0.94L8.77-0.05L8.20 0.56L6.89-0.33Q6.05 0.14 4.69 0.14L4.69 0.14Q0.75 0 0.47-4.27L0.47-4.27Q0.70-8.72 4.69-8.81L4.69-8.81Q8.58-8.67 8.86-4.27L8.86-4.27Q8.81-2.20 7.64-0.94L7.64-0.94ZM10.41-8.58L11.58-8.58L11.58 0L10.41 0L10.41-8.58ZM14.95-8.58L19.27-1.64L19.27-8.58L20.39-8.58L20.39 0L19.08 0L14.72-6.94L14.67-6.94L14.67 0L13.55 0L13.55-8.58L14.95-8.58ZM28.59-3.61L25.97-3.61L25.97-4.59L29.72-4.59L29.72 0L28.97 0L28.69-1.08Q27.70 0.09 25.88 0.14L25.88 0.14Q24.14 0.14 23.20-0.75L23.20-0.75Q21.80-2.06 21.84-4.36L21.84-4.36Q22.17-8.63 25.92-8.81L25.92-8.81Q29.11-8.63 29.58-6L29.58-6L28.45-6Q27.98-7.78 25.88-7.83L25.88-7.83Q23.20-7.64 23.06-4.31L23.06-4.31Q23.06-0.75 25.92-0.75L25.92-0.75Q26.95-0.75 27.70-1.31L27.70-1.31Q28.64-2.06 28.59-3.61L28.59-3.61ZM35.02 0L31.55 0L31.55-8.58L35.06-8.58Q38.53-8.39 38.67-4.41L38.67-4.41Q38.48-0.09 35.02 0L35.02 0ZM34.88-7.64L32.72-7.64L32.72-0.98L34.97-0.98Q37.41-1.13 37.50-4.31L37.50-4.31Q37.45-7.55 34.88-7.64L34.88-7.64ZM45.80 0L44.95-2.48L41.48-2.48L40.59 0L39.42 0L42.66-8.58L43.97-8.58L47.06 0L45.80 0ZM43.22-7.31L41.86-3.52L44.53-3.52L43.27-7.31L43.22-7.31ZM54.89-4.27L54.89-4.27Q54.70-7.64 51.89-7.83L51.89-7.83Q49.03-7.69 48.89-4.27L48.89-4.27Q49.03-0.94 51.89-0.80L51.89-0.80Q54.70-0.98 54.89-4.27ZM56.06-4.27L56.06-4.27Q55.78 0 51.89 0.14L51.89 0.14Q47.95 0 47.67-4.27L47.67-4.27Q47.91-8.72 51.89-8.81L51.89-8.81Q55.78-8.67 56.06-4.27ZM60.05-1.92L60.05-2.77L61.13-2.77L61.13-2.16Q61.13-0.75 62.44-0.75L62.44-0.75Q63.80-0.75 63.80-2.25L63.80-2.25L63.80-8.58L64.97-8.58L64.97-2.30Q64.92 0.09 62.48 0.14L62.48 0.14Q60.19 0.09 60.05-1.92L60.05-1.92ZM66.94-8.58L68.11-8.58L68.11 0L66.94 0L66.94-8.58ZM76.36-6.09L76.36-6.09L75.28-6.09Q75.19-7.73 73.13-7.83L73.13-7.83Q71.20-7.78 71.20-6.33L71.20-6.33Q71.20-5.39 72.23-5.25L72.23-5.25L74.67-4.69Q76.59-4.22 76.59-2.34L76.59-2.34Q76.55 0.05 73.22 0.14L73.22 0.14Q71.39 0.14 70.64-0.61L70.64-0.61Q69.70-1.31 69.75-2.77L69.75-2.77L70.88-2.77Q70.92-0.80 73.22-0.75L73.22-0.75Q75.47-0.80 75.52-2.20L75.52-2.20Q75.70-3.38 73.64-3.75L73.64-3.75L71.86-4.13Q70.03-4.64 70.03-6.19L70.03-6.19Q70.17-8.72 73.03-8.81L73.03-8.81Q76.27-8.81 76.36-6.09ZM79.22-5.06L83.72-5.06L83.72-8.58L84.89-8.58L84.89 0L83.72 0L83.72-3.98L79.22-3.98L79.22 0L78.05 0L78.05-8.58L79.22-8.58L79.22-5.06ZM92.34-3.19L92.34-8.58L93.52-8.58L93.52-3.05Q93.38 0.05 90 0.14L90 0.14Q86.86 0.05 86.72-2.86L86.72-2.86L86.72-8.58L87.89-8.58L87.89-3.19Q87.94-0.84 90.05-0.80L90.05-0.80Q92.34-0.84 92.34-3.19L92.34-3.19ZM102.09-4.27L102.09-4.27Q101.91-7.64 99.09-7.83L99.09-7.83Q96.23-7.69 96.09-4.27L96.09-4.27Q96.23-0.94 99.09-0.80L99.09-0.80Q101.91-0.98 102.09-4.27ZM103.27-4.27L103.27-4.27Q102.98 0 99.09 0.14L99.09 0.14Q95.16 0 94.88-4.27L94.88-4.27Q95.11-8.72 99.09-8.81L99.09-8.81Q102.98-8.67 103.27-4.27Z" transform="translate(-0.46875, 8.8125)"></path></g></g></g></g></g><defs v-gra="od"></defs></svg>